<svg xmlns="http://www.w3.org/2000/svg" version="1.1" xmlns:xlink="http://www.w3.org/1999/xlink" xmlns:svgjs="http://svgjs.dev/svgjs" width="1000" height="1125" viewBox="0 0 1000 1125"><g transform="matrix(1,0,0,1,0.000006425112871966121,0)"><svg viewBox="0 0 320 360" data-background-color="#ffffff" preserveAspectRatio="xMidYMid meet" height="1125" width="1000" xmlns="http://www.w3.org/2000/svg" xmlns:xlink="http://www.w3.org/1999/xlink"><g id="tight-bounds" transform="matrix(1,0,0,1,0.0000020560361235766322,0)"><svg viewBox="0 0 320 360" height="360" width="320"><g><svg></svg></g><g><svg viewBox="0 0 320 360" height="360" width="320"><g><path transform="translate(-15.58119,4.24857) scale(3.51065,3.51065)" d="M51.5 85.2c-0.4-0.5-0.8-0.2-0.8-0.5-2.4 0.6-6.9-1-8.8-0.8 0.4-0.6-0.6-0.5-0.6-0.9-0.4 0.6-0.8 0-1.4 0.2-0.6-1.5-3-0.4-3.3-2.3-1.4 0-1.9-0.8-3.3-1.6 0.1-0.1 0.2-0.1 0.3-0.2-0.7-0.1-0.7-0.5-1.3-0.5l0.2-0.4c-1.1-0.2-1.5-1.9-3.1-2.5-0.5-0.1-1.6-1.8-2.2-2.2-0.3-0.2-0.8-0.2-0.1-0.3-0.1-0.1-0.1-0.3 0-0.4-0.7-0.2-0.8-0.8-1.7-1.1-0.1-0.3 0.2-0.5 0-0.7-0.2-0.1-0.5 0.1-0.7 0-0.1 1.8 1.9 2 2.5 3.5-0.2-0.2-0.5-0.8-0.7-0.4-0.1 0.3 0.8 1.4 0.8 0.8-0.3 0.2-0.4-0.3-0.2-0.4 0.3 0.5 0.9 0.4 0.9 0.8-0.3 0.3-0.7-0.3-0.6 0.2 0.9 0.5 0.8 1 1.3 1.7-0.4-0.5-0.5 0.4-0.9 0-0.1-1.5-1.8-1.2-1.8-2.7-0.2-0.5-0.4-0.1-0.7-0.3 0.4-0.4-1.2-1.8-1.2-1.3-0.5-0.6-0.2-0.8-0.3-1.2-0.4-0.1-0.1 0.4-0.4 0.1 0.4-0.7-0.5-1.6-1.1-2.3l0.4-0.2c-0.7-0.4-0.8-1.2-1.3-2.1-0.6 0.9 1.2 2.9 0.9 3.3 0 0.1 0.7 0.9 0.9 1.3 0.8 1.4 1.4 3.1 2.5 3.9-0.2-0.1-0.1-0.7 0.2-0.4 0 0.3-0.2 0.6-0.2 0.9 0.6 0.6 1.1 1.1 1.7 1.7-1.3-0.8-2.6-1.6-3.5-2.8 0.5-0.1 1 0.8 1.4 0.7-1-0.8-0.7-1.1-1.1-2.1-0.4-0.3 0.1 0.4-0.3 0.5-1.3-1.2-2.3-1.9-2.9-3 0.1-0.1 0.2-0.2 0.2-0.4-0.1-0.1-0.1-0.1-0.2-0.2 0.6 0.6 0.8 1.1 1.5 1.2-0.3-0.3 0-0.4-0.4-0.7-0.2-0.4-0.5 0.2-0.7-0.1 0.2-0.3 0-0.7 0-1-0.2 0-0.4 0-0.5-0.3-0.2-0.1-0.3 0-0.4 0.2-0.1-0.1-0.1-0.3-0.2-0.4v-0.1c-0.1-0.1-0.2-0.3-0.3-0.4-0.8-2.1-1.3-4.9-2.4-6.7 0.3-1.2-0.2-3.6-0.5-4.2 0.3-0.5 0.1-2.8-0.1-3.2-0.5 0.2 0.1 1.3-0.4 1.6-0.5-2.2 0.3-4.7 0.1-6.7 0.2 0 0.4 0 0.4-0.1-0.3-0.3 0.2-0.9 0.1-1.6 0.4-0.9-0.9 1.3-0.9 2.2-0.1 0.2-0.5 0-0.4 0.5 0 0.7 0.2 2.1-0.2 3.1-0.2 0-0.2-0.2-0.4-0.1-0.1 0.5-0.2 1.1-0.3 1.6-0.1-0.2-0.2-0.5-0.2-0.6-0.5-2.5 0-5.4-0.2-7.5 0.4 0 0.4-0.6 0.7-0.8-0.1 0.8-0.3 1.8 0.2 2 0.4-3.9 1.2-8.2 3-12.4 1.3-3.1 3.2-6.2 5.5-8.7 0.2 0.3-0.1 1 0 1.3 2-2.1 3.3-4.6 5.5-6 0.1 0.5-0.9 0.9-0.9 1.3 0.9-0.9 1.2-0.6 2.2-0.9 0.3-0.4-0.4 0-0.5-0.4 0.6-0.4 1-0.9 1.4-1.2 0 0.1-0.1 0.1-0.1 0.2 1.1-0.3 1.2-0.9 2-1.1-0.1-0.1-0.3-0.2-0.6-0.1 0.2-0.1 0.5-0.3 0.8-0.4-0.1 0-0.1 0.1-0.2 0.1 0.6-0.3 0.1 0.1 0.1 0.3 0.1 0 0.2-0.1 0.2-0.1-0.6 0.4-1 0.6-1.2 1.3 0.3-0.2 0.4 0 0.8-0.3 0.4-0.2-0.1-0.5 0.2-0.7 0.3 0.2 0.7 0.1 1 0.1 0-0.2 0.1-0.4 0.3-0.5 0.1-0.2 0-0.3-0.1-0.3 0.1-0.1 0.2-0.1 0.4-0.2 0 0 0.1 0 0.1 0.1 1.7-0.8 3.6-1.5 5.4-2.1 1.1-0.1 2.5-0.1 3.1-0.8-0.2 0-0.4 0.1-0.5 0 0.1 0 0.3-0.1 0.4-0.1 0.2 0.2 0.5 0 0.2 0.4 0.1 0 0.1 0 0.2-0.1 0 0.1 0 0.1 0.1 0.2 0.1 0 0.2-0.1 0.3-0.3 0.1 0 0.2 0 0.3-0.1l-0.1 0.1c0.8-0.2 1.5-0.1 2.6-0.3 0-0.1 0-0.2 0-0.3 0.2 0 0.3-0.1 0.5-0.1v0.1c0.4-0.2 0.8 0.2 0.8 0 0.1 0 0.1 0 0.2 0 0 0.2-0.1 0.3-0.1 0.4 0.5 0 0.8 0 1-0.3-0.1-0.1-0.2-0.1-0.3-0.1 0.2 0 0.4-0.1 0.6-0.2 0.3 0.1 0.4 0.2 0.4 0.6 0.5-0.9 2.1 0.2 2.8 0 0.3 0 0.2-0.4 0.4-0.6 0.1 0 0.2 0 0.3 0 0.5 0.4 1.2 0.8 2.1 0.9-0.8-0.2 0.1-0.3 0.2-0.4-0.2 0-0.2-0.1-0.2-0.2 0.3 0 0.6 0.1 0.9 0.1 0 0.2 0.1 0.3 0.3 0.3 0.2 0 0.2-0.1 0.2-0.3 0.3 0 0.5 0 0.8 0.1-0.1 0.4 0.5 0.5 0.7 0.8-0.8-0.2-1.7-0.5-2 0 3.2 0.7 6.7 1.7 10.1 3.4 0 0 0 0 0 0.1h0.1c0.6 0.3 1.2 0.6 1.8 0.9 0.4 0.2 0.7 0.4 1.1 0.7 0 0.1 0 0.2 0.2 0.2h0.1c0.4 0.3 0.8 0.5 1.2 0.8 0.4 0.6 0.8 1.4 1.5 1.2 1.5 2.3 3.1 3.2 4.4 5.6 0.1-0.4 0.4 0.9 0.9 1-0.8-0.1 0.5 0.5-0.3 0.4 0.7 0.7 0.9 1 1 1.8-0.2-0.4-0.3-0.5-0.4-0.1-0.1 0.6 0.7-0.1 1 0.5-0.6 0-0.4 0.4-0.3 0.9 0.3-0.3 0.2-0.6 0.5-0.5 0.4 0.4-0.2 0.5-0.1 0.8 0.3-0.4 0.4-0.2 0.8 0-0.5 0.1 0.3 0.8-0.3 0.5 0.4 0.5 0.5 0.8 0.3 1.3-0.4-0.6-0.1-1-0.7-0.9 1.2 1 0.6 3.3 2 3.5-0.9 0.2 0 0.6-0.5 0.7 0.6 0.2 0.3 1 1 1.2-0.1 0.5-0.3 0.8-0.4 1.3 0.3 0.4 0.4 1.2 0.9 1.3-0.3 0.3-0.1 1.1-0.4 1.4 0.4-0.2 0.6-0.2 0.9 0.2-0.5 0.4-0.1 0.8-0.4 0.9 0.9 2.3-0.2 7 0.3 8.8-0.6-0.3-0.4 0.7-0.8 0.7 0.7 0.3 0.1 0.8 0.4 1.3-1.4 0.8 0 3-1.9 3.5 0.2 1.4-0.6 2-1.2 3.5-0.1-0.1-0.1-0.2-0.2-0.3-0.1 0.7-0.5 0.8-0.3 1.4l-0.4-0.2c0 1.1-1.7 1.7-2.1 3.4-0.1 0.5-1.6 1.8-2 2.5-0.2 0.3-0.1 0.8-0.3 0.1-0.1 0.1-0.3 0.1-0.4 0.1-0.1 0.7-0.7 0.9-0.9 1.8-0.2 0.1-0.5-0.2-0.7 0.1 0 0.2 0.2 0.5 0.1 0.7 1.8-0.1 1.8-2.2 3.2-2.9-0.1 0.3-0.7 0.6-0.3 0.8 0.3 0 1.2-1 0.7-0.9 0.3 0.2-0.3 0.4-0.4 0.3 0.5-0.4 0.3-0.9 0.7-1 0.3 0.2-0.3 0.7 0.3 0.6 0.4-0.9 0.9-1 1.5-1.5-0.4 0.4 0.5 0.5 0.1 0.9-1.5 0.3-1 2-2.5 2.2-0.4 0.3-0.1 0.4-0.2 0.7-0.5-0.3-1.6 1.4-1.2 1.3-0.5 0.5-0.8 0.3-1.2 0.4-0.1 0.4 0.4 0.1 0.2 0.4-0.7-0.3-1.6 0.7-2.2 1.4l-0.3-0.3c-0.3 0.8-1.1 0.9-2 1.5 1 0.5 2.7-1.6 3.2-1.3 0.1 0 0.9-0.8 1.2-1.1 1.3-1 2.9-1.8 3.5-2.9-0.1 0.2-0.7 0.2-0.4-0.1 0.3-0.1 0.6 0.1 0.9 0.1 1.6-2.2 3.6-4 5.1-6.6 0.1-0.1 0.2-0.3 0.3-0.5-0.2 0.6-0.5 1.1-0.7 1.7-1.6 1.1-2.2 4.3-4.1 4.8 0.1 1.1-0.9 1.4-1.4 2.7-0.3 0.4-0.5-0.3-0.8 0.2 0.3 1.4-2.5 1.3-2.4 2.6-0.2 0.1-0.5 0.2-0.7 0.4h-0.1c-0.1 0.1-0.1 0.1-0.2 0.2-0.5 0.3-0.9 0.6-1.3 0.9-1.4 0.8-3.3 1.4-4.8 2.2v-0.1c-0.4 0.2-0.9 0.1-0.8 0.5-0.3 0.2-0.6 0.4-0.9 0.6-0.1 0-0.1 0-0.2 0 0 0-0.1-0.1-0.2-0.1-0.2 0-0.2 0-0.3 0.1-1.3 0.1-3 0.7-3.5 1.1-0.5-0.3-2.8 0.2-3.2 0.4 0.2 0.3 0.8 0 1.3 0-0.3 0.1-0.6 0.2-0.7 0.4-0.1 0-0.1 0-0.2 0-0.1-0.3-0.4 0-0.5-0.1h0.1c-0.1-0.4-0.4-0.6-0.9-0.5 0 0.2 0 0.3-0.1 0.5 0.2 0 0.8-0.3 0.8 0-0.1 0-0.1 0.1 0 0.1-0.2 0.2-0.5 0.2-0.7 0.3-0.4 0-0.9 0-1.3 0-0.1-0.1-0.2-0.1-0.4-0.2-0.1 0.1-0.3 0.1-0.4 0.2-0.6 0-1.3 0.1-1.8 0.2 0-0.2 0-0.4-0.2-0.4-0.3 0.4-0.9-0.1-1.6 0.1-0.7-0.2 0.4 0.3 1.4 0.5-0.1 0.1-0.2 0.2-0.5 0.3M37.5 86.6c-1.4-1.3-4.3-1.9-4.8-2.9-0.8-0.1-2-1.6-3-1.8 0.5 0 0.1-0.3 0-0.5-0.2 0.2-0.4 0.3-0.6 0.3 0-0.8-0.8-1.3-1.5-1.8 0.5 0.3 0.9 0.5 1.5 0.6 0-0.2 0-0.4 0.2-0.4 0.7 0.7 1.5 1.4 2.4 2.1 1.2 1.1 7.4 3.9 8.5 4.4 0 0-0.2 0.4-0.1 0.4 0.5 0.3 0.9-0.3 1 0.4-1.6 0.2-2.2-0.9-3.6-0.8M83.6 63.4v0.1 0c-0.1 0 0-0.1 0-0.1M43.2 17.1c-0.1 0.1-0.2 0.1-0.2 0.1 0-0.1 0.1-0.1 0.2-0.1M41.3 17.6c0 0.1 0 0.1 0 0 0 0.1 0 0.1 0 0 0 0.1 0 0 0 0M34.7 19.7v0c0.1-0.1 0.1-0.1 0.2-0.1-0.1 0-0.2 0.1-0.2 0.1M50.7 16.4c-0.2 0-0.3 0-0.4-0.1 0.1 0 0.2 0 0.3 0h0.1c0 0 0 0 0 0.1M52.5 16.6c-0.1-0.1-0.4-0.2-0.7-0.2 0-0.1 0.1-0.2 0.1-0.2 0.1 0 0.2 0 0.3 0 0 0 0.1 0 0.1 0.1 0 0 0 0 0-0.1 0.1 0 0.1 0 0.2 0 0.1 0.2 0.2 0.3 0 0.4M55.8 16.9c-0.5 0.1-0.8-0.1-1.3-0.4 0.3 0 0.7 0.1 1 0.2 0.1 0 0.2 0.1 0.3 0.2M91.4 31.1c-0.2 0.1-0.3 0.1-0.5-0.3-1.6-3.4-4.5-8.3-8.7-12.4-4.1-4.2-9.6-7.6-14.6-9.4 0.3 0.1 0.7 0.3 0.5 0.5-4.4-1.7-8.6-2.7-12.6-3.1-10.8-1.7-22.1 0.6-30.8 6.2 0.1 0.2 0.1 0.3-0.2 0.5-3.2 2-7.7 5.5-11.3 10.1-3.6 4.6-6.4 10.4-7.6 15.6 0.1-0.3 0.2-0.8 0.4-0.6-2.6 10.3-1.9 19.1 1.7 26.7 0.2-0.2-0.5-1.2 0.1-1.1 0.4 1.1 0.9 2.3 1.5 3.4 0.7 1.6 1.5 3.7 2.6 4.2-2.8-5.5-4.7-11.8-4.9-17.4 0.4 0.8 0.3 2.5 0.9 3.2 0.2-3.8-0.7-8.9 0.6-12.5-0.3 1.9-0.5 4.5-0.3 7.1 0 1.9 0.9 7.2 1.5 7.7-0.1-0.1-0.1-0.6 0-0.6 0.3 0.6-0.4 0.9 0.1 1 0-0.2 0.1-0.2 0.2-0.2 1 2.2 2.3 5.6 3.3 7.3 1.2 2.2 2.8 4.2 4.6 6 0 0.1 0.1 0.1 0.1 0.2 0.2 0.5 0.9 1.1 1.1 1.5 0.1 0.2-0.1 0.5 0 0.7 1.5 2.8 3.7 5.6 6.4 7.8 1.7 2 4.4 4.1 7.7 5.9 3.2 1.7 6.9 3.1 10.3 3.9 2.4 0.6 5.3 0.7 7.1 1.1 2.4 0.5 6.6-0.2 8.7-0.6 12.6-1.9 25.1-10.5 31.4-22.9 6.5-12.5 6.3-27.8 0.7-39.5" fill="#374151" fill-rule="nonzero" stroke="none" stroke-width="1" stroke-linecap="butt" stroke-linejoin="miter" stroke-miterlimit="10" stroke-dasharray="" stroke-dashoffset="0" font-family="none" font-weight="none" font-size="none" text-anchor="none" style="mix-blend-mode: normal" data-fill-palette-color="tertiary"></path></g><g transform="matrix(1,0,0,1,80,125.16009891355196)"><svg viewBox="0 0 160 109.67980217289607" height="109.67980217289607" width="160"><g><svg viewBox="0 0 160 109.67980217289607" height="109.67980217289607" width="160"><g transform="matrix(1,0,0,1,0,66.52119504741493)"><svg viewBox="0 0 160 43.15860712548114" height="43.15860712548114" width="160"><g id="textblocktransform"><svg viewBox="0 0 160 43.15860712548114" height="43.15860712548114" width="160" id="textblock"><g><rect width="160" height="37.17928252501925" fill="none" stroke-width="5.253264000000001" stroke="#374151" data-fill-palette-color="none" data-stroke-palette-color="tertiary"></rect><rect width="160" height="5.9793246004618945" y="37.17928252501925" fill="#374151" data-fill-palette-color="tertiary"></rect></g><g><svg viewBox="0 0 160 37.17928252501925" height="37.17928252501925" width="160"><g transform="matrix(1,0,0,1,13.752,13.752)"><svg width="132.496" viewBox="1.2 -32.7 454.61 33.2" height="9.675282525019247" data-palette-color="#374151"><path d="M17.1-32.7Q21.7-32.7 25.45-31.05L25.45-31.05 24-24.4 23.45-24.1Q22.05-25.05 20.28-25.58 18.5-26.1 16.8-26.1L16.8-26.1Q13.2-26.1 11.48-23.85 9.75-21.6 9.75-16.75L9.75-16.75Q9.75-6.25 17.2-6.25L17.2-6.25Q18.85-6.25 20.7-6.7 22.55-7.15 24.05-7.95L24.05-7.95 24.75-7.55 24.1-0.9Q20.6 0.5 16.55 0.5L16.55 0.5Q9 0.5 5.1-3.7 1.2-7.9 1.2-15.85L1.2-15.85Q1.2-23.9 5.35-28.3 9.5-32.7 17.1-32.7L17.1-32.7ZM45.8-9.95Q48.15-6.4 51.85-1.75L51.85-1.75 51.75-0.9Q47.9 0.25 44.45 0.45L44.45 0.45 43.4-0.3Q41.3-4.15 39.55-7.75L39.55-7.75 36.25-7.75 36.55 0 29.05 0 29.4-7.45 29.05-25.4 41.1-25.45Q45.55-25.45 47.95-23.43 50.35-21.4 50.35-17.65L50.35-17.65Q50.35-15.35 49.15-13.35 47.95-11.35 45.8-9.95L45.8-9.95ZM42.4-16.9Q42.4-18.55 41.47-19.3 40.55-20.05 38.5-20.15L38.5-20.15 36.55-20 36.4-13.3 39.75-13.1Q41.15-13.6 41.77-14.53 42.4-15.45 42.4-16.9L42.4-16.9ZM67.45-5.8L74.35-6.05 74.8-5.55 74.3 0 55.95 0 56.3-7.45 55.95-25.4 74.55-25.4 75-24.85 74.5-19.35 67.9-19.6 63.45-19.6 63.35-15.7 67.65-15.7 72-15.85 72.4-15.3 71.95-9.75 67.15-9.9 63.2-9.85 63.15-8.2 63.25-5.8 67.45-5.8ZM90.74-5.8L97.64-6.05 98.09-5.55 97.59 0 79.24 0 79.59-7.45 79.24-25.4 97.84-25.4 98.29-24.85 97.79-19.35 91.19-19.6 86.74-19.6 86.64-15.7 90.94-15.7 95.29-15.85 95.69-15.3 95.24-9.75 90.44-9.9 86.49-9.85 86.44-8.2 86.54-5.8 90.74-5.8ZM129.49-25.4L131.74 0 124.99 0 124.79-7.7 124.14-14.35 123.74-14.35 118.94-2.4 113.19-2.4 109.09-14.35 108.59-14.35 107.94-8.4 107.49 0 101.09 0 103.69-25.4 112.59-25.4 113.44-21.75 116.24-12.3 116.74-12.3 119.79-21.55 120.84-25.4 129.49-25.4ZM148.44-5.8L155.34-6.05 155.79-5.55 155.29 0 136.94 0 137.29-7.45 136.94-25.4 155.54-25.4 155.99-24.85 155.49-19.35 148.89-19.6 144.44-19.6 144.34-15.7 148.64-15.7 152.99-15.85 153.39-15.3 152.94-9.75 148.14-9.9 144.19-9.85 144.14-8.2 144.24-5.8 148.44-5.8ZM176.99-9.95Q179.34-6.4 183.04-1.75L183.04-1.75 182.94-0.9Q179.09 0.25 175.64 0.45L175.64 0.45 174.59-0.3Q172.49-4.15 170.74-7.75L170.74-7.75 167.44-7.75 167.74 0 160.24 0 160.59-7.45 160.24-25.4 172.29-25.45Q176.74-25.45 179.14-23.43 181.54-21.4 181.54-17.65L181.54-17.65Q181.54-15.35 180.34-13.35 179.14-11.35 176.99-9.95L176.99-9.95ZM173.59-16.9Q173.59-18.55 172.66-19.3 171.74-20.05 169.69-20.15L169.69-20.15 167.74-20 167.59-13.3 170.94-13.1Q172.34-13.6 172.96-14.53 173.59-15.45 173.59-16.9L173.59-16.9ZM196.83-25.85Q200.48-25.85 204.13-24.55L204.13-24.55 203.03-18.05 201.93-17.8Q200.33-18.95 198.66-19.6 196.98-20.25 195.83-20.25L195.83-20.25Q194.78-20.25 194.21-19.78 193.63-19.3 193.63-18.6L193.63-18.6Q193.63-17.75 194.48-17.2 195.33-16.65 197.38-15.8L197.38-15.8Q199.58-14.95 201.06-14.13 202.53-13.3 203.61-11.8 204.68-10.3 204.68-8.05L204.68-8.05Q204.68-5.8 203.56-3.85 202.43-1.9 200.01-0.7 197.58 0.5 193.98 0.5L193.98 0.5Q189.63 0.5 185.48-1L185.48-1 186.53-7.75 187.28-8.3Q189.03-6.75 191.18-5.83 193.33-4.9 194.93-4.9L194.93-4.9Q195.98-4.9 196.63-5.4 197.28-5.9 197.28-6.65L197.28-6.65Q197.28-7.5 196.43-8.05 195.58-8.6 193.53-9.45L193.53-9.45Q191.28-10.35 189.81-11.2 188.33-12.05 187.26-13.55 186.18-15.05 186.18-17.35L186.18-17.35Q186.18-19.75 187.46-21.68 188.73-23.6 191.13-24.73 193.53-25.85 196.83-25.85L196.83-25.85ZM230.98-32.7Q235.58-32.7 239.33-31.05L239.33-31.05 237.88-24.4 237.33-24.1Q235.93-25.05 234.15-25.58 232.38-26.1 230.68-26.1L230.68-26.1Q227.08-26.1 225.35-23.85 223.63-21.6 223.63-16.75L223.63-16.75Q223.63-6.25 231.08-6.25L231.08-6.25Q232.73-6.25 234.58-6.7 236.43-7.15 237.93-7.95L237.93-7.95 238.63-7.55 237.98-0.9Q234.48 0.5 230.43 0.5L230.43 0.5Q222.88 0.5 218.98-3.7 215.08-7.9 215.08-15.85L215.08-15.85Q215.08-23.9 219.23-28.3 223.38-32.7 230.98-32.7L230.98-32.7ZM254.28-25.85Q260.08-25.85 263.25-22.58 266.43-19.3 266.43-13.35L266.43-13.35Q266.43-6.75 262.98-3.13 259.53 0.5 253.18 0.5L253.18 0.5Q247.38 0.5 244.2-2.85 241.03-6.2 241.03-12.3L241.03-12.3Q241.03-18.75 244.48-22.3 247.93-25.85 254.28-25.85L254.28-25.85ZM253.58-19.85Q251.78-19.85 250.78-19.28 249.78-18.7 249.33-17.28 248.88-15.85 248.88-13.3L248.88-13.3Q248.88-10.05 249.35-8.33 249.83-6.6 250.88-5.9 251.93-5.2 253.83-5.2L253.83-5.2Q255.68-5.2 256.68-5.78 257.68-6.35 258.13-7.75 258.58-9.15 258.58-11.75L258.58-11.75Q258.58-14.95 258.13-16.7 257.68-18.45 256.6-19.15 255.53-19.85 253.58-19.85L253.58-19.85ZM294.62-25.55L294.22-8.25 294.52 0 286.32 0 277.67-14.1 277.27-14.1 277.22-9.1 277.47 0 270.67 0 271.02-7.45 270.67-25.4 278.82-25.4 287.47-11.35 287.97-11.35 287.72-25.15 294.62-25.55ZM310.77-25.85Q314.42-25.85 318.07-24.55L318.07-24.55 316.97-18.05 315.87-17.8Q314.27-18.95 312.59-19.6 310.92-20.25 309.77-20.25L309.77-20.25Q308.72-20.25 308.14-19.78 307.57-19.3 307.57-18.6L307.57-18.6Q307.57-17.75 308.42-17.2 309.27-16.65 311.32-15.8L311.32-15.8Q313.52-14.95 315-14.13 316.47-13.3 317.55-11.8 318.62-10.3 318.62-8.05L318.62-8.05Q318.62-5.8 317.5-3.85 316.37-1.9 313.94-0.7 311.52 0.5 307.92 0.5L307.92 0.5Q303.57 0.5 299.42-1L299.42-1 300.47-7.75 301.22-8.3Q302.97-6.75 305.12-5.83 307.27-4.9 308.87-4.9L308.87-4.9Q309.92-4.9 310.57-5.4 311.22-5.9 311.22-6.65L311.22-6.65Q311.22-7.5 310.37-8.05 309.52-8.6 307.47-9.45L307.47-9.45Q305.22-10.35 303.75-11.2 302.27-12.05 301.19-13.55 300.12-15.05 300.12-17.35L300.12-17.35Q300.12-19.75 301.39-21.68 302.67-23.6 305.07-24.73 307.47-25.85 310.77-25.85L310.77-25.85ZM346.02-25.4L345.77-12.5 345.72-8.5Q345.72-4.2 342.72-1.88 339.72 0.45 334.17 0.45L334.17 0.45Q328.82 0.45 325.99-1.88 323.17-4.2 323.27-8.5L323.27-8.5 323.37-12.55 323.17-25.4 330.67-25.4 330.32-9.55Q330.27-7.45 331.29-6.5 332.32-5.55 334.52-5.55L334.52-5.55Q336.72-5.55 337.74-6.5 338.77-7.45 338.72-9.55L338.72-9.55 338.37-25.4 346.02-25.4ZM367.26-6.15L367.67-5.65 367.22 0 351.67 0 352.01-7.45 351.67-25.4 359.31-25.4 358.87-8.2 358.97-6.15 367.26-6.15ZM386.11-25.4L386.51-24.85 386.06-19.25 380.76-19.55 379.86-19.55 379.66-8.2 379.96 0 372.46 0 372.81-7.45 372.61-19.55 371.71-19.55 366.31-19.25 365.81-19.8 366.26-25.4 386.11-25.4ZM398.06-25.4L397.61-8.2 397.91 0 390.41 0 390.76-7.45 390.41-25.4 398.06-25.4ZM428.81-25.55L428.41-8.25 428.71 0 420.51 0 411.86-14.1 411.46-14.1 411.41-9.1 411.66 0 404.86 0 405.21-7.45 404.86-25.4 413.01-25.4 421.66-11.35 422.16-11.35 421.91-25.15 428.81-25.55ZM447.9-25.8Q452.36-25.8 455.81-24.6L455.81-24.6 454-17.85 453.4-17.85Q451.36-18.9 449.83-19.35 448.31-19.8 446.5-19.8L446.5-19.8Q444.4-19.8 443.23-19.18 442.06-18.55 441.5-16.98 440.95-15.4 440.95-12.5L440.95-12.5Q440.95-9.6 441.5-8.08 442.06-6.55 443.31-5.93 444.56-5.3 446.81-5.3L446.81-5.3Q447.86-5.3 448.95-5.65L448.95-5.65 448.95-6.85 448.86-11.1 455.75-11.55 455.61-8.1 455.61-1.25Q450.65 0.45 446.15 0.45L446.15 0.45Q439.7 0.45 436.4-2.8 433.11-6.05 433.11-12.1L433.11-12.1Q433.11-18.8 436.93-22.3 440.75-25.8 447.9-25.8L447.9-25.8Z" opacity="1" transform="matrix(1,0,0,1,0,0)" fill="#374151" class="wordmark-text-0" data-fill-palette-color="primary" id="text-0"></path></svg></g></svg></g></svg></g></svg></g><g transform="matrix(1,0,0,1,50.17740247629254,0)"><svg viewBox="0 0 59.645195047414916 59.64519504741494" height="59.64519504741494" width="59.645195047414916"><g><svg xmlns="http://www.w3.org/2000/svg" xmlns:xlink="http://www.w3.org/1999/xlink" version="1.1" x="0" y="0" viewBox="11.026000000000003 11.026 77.94899999999998 77.94900000000001" enable-background="new 0 0 100 100" xml:space="preserve" height="59.64519504741494" width="59.645195047414916" class="icon-icon-0" data-fill-palette-color="accent" id="icon-0"><path d="M50 11.026c-21.525 0-38.974 17.449-38.974 38.974 0 12.283 5.688 23.232 14.567 30.376l-14.567 8.599H50c21.525 0 38.975-17.449 38.975-38.975C88.975 28.475 71.523 11.026 50 11.026zM49.999 85.507H23.961l8.242-4.786C21.617 74.574 14.493 63.123 14.493 50c0-19.61 15.896-35.506 35.506-35.506 19.61 0 35.507 15.896 35.507 35.506C85.506 69.609 69.609 85.507 49.999 85.507zM52.613 51.837c-0.454 3.512-2.184 6.771-4.842 9.119l-1.484-2.194c1.981-1.84 3.27-4.263 3.681-6.925H52.613M54.249 50.318h-5.664c-0.106 3.355-1.792 6.306-4.33 8.152l3.174 4.692C51.471 60.299 54.139 55.623 54.249 50.318L54.249 50.318zM38.109 35.364c7.375 0 13.582 5.602 14.505 12.772h-2.645c-0.886-5.801-5.839-10.157-11.86-10.157-5.305 0-9.911 3.462-11.457 8.417l-2.619-0.393C25.786 39.755 31.479 35.364 38.109 35.364M38.109 33.845c-7.987 0-14.617 5.802-15.914 13.421l5.599 0.839c0.89-4.893 5.165-8.605 10.314-8.605 5.682 0 10.298 4.519 10.476 10.157h5.664C54.068 40.894 46.915 33.845 38.109 33.845L38.109 33.845zM23.486 49.674l2.612 0.392c0.04 6.59 5.413 11.939 12.012 11.939 1.772 0 3.514-0.394 5.109-1.147l1.482 2.192c-2.038 1.031-4.288 1.57-6.592 1.57-8.065 0-14.627-6.562-14.627-14.628C23.482 49.887 23.483 49.781 23.486 49.674M22.098 47.93c-0.086 0.676-0.135 1.363-0.135 2.062 0 8.918 7.229 16.147 16.147 16.147 3.232 0 6.24-0.954 8.765-2.589l-3.171-4.689c-1.619 1.023-3.534 1.624-5.593 1.624-5.794 0-10.493-4.699-10.493-10.493 0-0.414 0.03-0.821 0.077-1.223L22.098 47.93 22.098 47.93zM74.994 35.315H59.8c-0.419 0-0.759-0.34-0.759-0.76s0.34-0.76 0.759-0.76h15.194c0.42 0 0.76 0.34 0.76 0.76S75.414 35.315 74.994 35.315zM74.994 38.973H59.8c-0.419 0-0.759-0.34-0.759-0.76s0.34-0.76 0.759-0.76h15.194c0.42 0 0.76 0.34 0.76 0.76S75.414 38.973 74.994 38.973zM74.994 46.288H59.8c-0.419 0-0.759-0.34-0.759-0.76 0-0.419 0.34-0.759 0.759-0.759h15.194c0.42 0 0.76 0.34 0.76 0.759C75.754 45.948 75.414 46.288 74.994 46.288zM74.994 42.631H59.8c-0.419 0-0.759-0.34-0.759-0.76 0-0.419 0.34-0.76 0.759-0.76h15.194c0.42 0 0.76 0.34 0.76 0.76C75.754 42.291 75.414 42.631 74.994 42.631zM74.275 66.263H60.519c-0.814 0-1.478-0.663-1.478-1.479v-14.41c0-0.814 0.663-1.478 1.478-1.478h13.757c0.815 0 1.479 0.663 1.479 1.478v14.41C75.754 65.6 75.091 66.263 74.275 66.263zM74.235 50.374l-13.717 0.042 0.04 14.368 13.677-0.04V50.374zM73.248 53.412c0 0.639-0.517 1.155-1.155 1.155-0.045 0-0.084-0.021-0.126-0.025l-1.385 3.327c0.248 0.211 0.412 0.515 0.412 0.865 0 0.638-0.517 1.155-1.155 1.155-0.638 0-1.155-0.518-1.155-1.155 0-0.123 0.035-0.233 0.069-0.344l-2.769-1.796c-0.203 0.178-0.46 0.294-0.75 0.294-0.047 0-0.087-0.021-0.132-0.028l-1.685 4.003c0.262 0.211 0.439 0.522 0.439 0.885 0 0.638-0.517 1.154-1.155 1.154s-1.154-0.517-1.154-1.154c0-0.639 0.516-1.155 1.154-1.155 0.047 0 0.086 0.021 0.132 0.025l1.686-3.999c-0.262-0.214-0.439-0.523-0.439-0.886 0-0.638 0.517-1.154 1.154-1.154 0.639 0 1.155 0.517 1.155 1.154 0 0.116-0.034 0.222-0.067 0.328l2.782 1.801c0.201-0.169 0.451-0.282 0.734-0.282 0.059 0 0.108 0.024 0.164 0.033l1.38-3.312c-0.265-0.212-0.443-0.523-0.443-0.889 0-0.638 0.517-1.154 1.153-1.154C72.731 52.258 73.248 52.774 73.248 53.412z" fill="#374151" data-fill-palette-color="accent"></path></svg></g></svg></g><g></g></svg></g></svg></g></svg></g><defs></defs></svg><rect width="320" height="360" fill="none" stroke="none" visibility="hidden"></rect></g></svg></g></svg>